Coordinates
version=1
nRows=7
nColumns=40
inDegrees=yes

Units are S.I. units (second, meters, Newtons, ...)
Angles are in degrees.

endheader
time	pelvis_tilt	pelvis_list	pelvis_rotation	pelvis_tx	pelvis_ty	pelvis_tz	hip_flexion_r	hip_adduction_r	hip_rotation_r	knee_angle_r	knee_angle_r_beta	ankle_angle_r	subtalar_angle_r	mtp_angle_r	hip_flexion_l	hip_adduction_l	hip_rotation_l	knee_angle_l	knee_angle_l_beta	ankle_angle_l	subtalar_angle_l	mtp_angle_l	lumbar_extension	lumbar_bending	lumbar_rotation	arm_flex_r	arm_add_r	arm_rot_r	elbow_flex_r	pro_sup_r	wrist_flex_r	wrist_dev_r	arm_flex_l	arm_add_l	arm_rot_l	elbow_flex_l	pro_sup_l	wrist_flex_l	wrist_dev_l
     35.39000000	     -7.21027733	     -3.25545152	      7.27799793	      0.89309214	      0.91356633	      0.45629839	      4.97257132	     -1.04099004	    -13.31919118	     22.78919119	     22.78919119	     19.10831089	     -6.81061288	     -2.93147202	     30.12602454	     -2.31658498	      6.41092682	     27.23833523	     27.23833523	      7.43484473	    -10.78391325	      3.34183547	     -9.98722506	      3.07583482	      3.50450617	     45.87864411	    -12.61010060	     -1.69502247	    102.91174958	     44.54980755	      0.00000000	      0.00000000	     -9.01046518	     -6.88594491	      0.22170790	     34.47276069	     46.14201655	      0.00000000	      0.00000000
     35.40714286	     -7.22518525	     -3.37180717	      6.90200327	      0.89489315	      0.91429511	      0.45327767	      4.43669972	     -1.14066209	    -13.36122370	     22.57538467	     22.57538467	     18.78164572	     -6.21861731	     -3.14920635	     29.73934514	     -2.39919986	      6.22475961	     27.52602003	     27.52602003	      8.12488401	    -10.89419127	      3.38745204	     -9.82294869	      3.13114736	      4.01757950	     45.06624782	    -12.90752737	     -1.81225819	    101.36648905	     44.61034461	      0.00000000	      0.00000000	     -8.47173426	     -7.02097334	      0.26764697	     35.19390891	     46.13966394	      0.00000000	      0.00000000
     35.42428571	     -7.26204016	     -3.49264135	      6.50816629	      0.89669112	      0.91504662	      0.45033185	      3.99910812	     -1.27496963	    -13.44047548	     22.48630833	     22.48630833	     18.40688788	     -5.52443312	     -3.44054955	     29.32290380	     -2.50452824	      5.98486530	     27.71820634	     27.71820634	      8.73064583	    -10.95533958	      3.44949561	     -9.58414851	      3.18987648	      4.36121391	     44.16757557	    -12.97639931	     -2.04322646	     99.41504357	     44.68354808	      0.00000000	      0.00000000	     -7.98728761	     -7.24239736	      0.30056598	     35.97891212	     46.14031154	      0.00000000	      0.00000000
     35.44142857	     -7.28515380	     -3.57531262	      6.09331676	      0.89847416	      0.91582886	      0.44748197	      3.66108570	     -1.46464859	    -13.45281970	     22.60176869	     22.60176869	     18.05625794	     -4.99420987	     -3.76474294	     28.84256027	     -2.59419254	      5.65811181	     27.83038667	     27.83038667	      9.28720184	    -11.03593592	      3.49351908	     -9.39234443	      3.20631018	      4.56061477	     43.15239140	    -12.92926454	     -2.20104568	     97.45450144	     44.75169364	      0.00000000	      0.00000000	     -7.51627536	     -7.49858320	      0.31732521	     36.72311090	     46.14431872	      0.00000000	      0.00000000
     35.45857143	     -7.23627173	     -3.67373766	      5.68688467	      0.90013074	      0.91670176	      0.44472950	      3.37303383	     -1.68232746	    -13.53276790	     22.91624488	     22.91624488	     17.50600630	     -4.39276006	     -4.70755846	     28.31101573	     -2.70332139	      5.35085249	     27.98046452	     27.98046452	      9.91746036	    -11.01904034	      3.80903423	     -9.24060073	      3.20523228	      4.42408606	     42.62450329	    -12.36422580	     -2.48401697	     94.07137398	     44.87587894	      0.00000000	      0.00000000	     -7.30475136	     -7.85108963	      0.47853576	     37.99956246	     46.12790167	      0.00000000	      0.00000000
     35.47571429	     -7.23177931	     -3.70787318	      5.26552767	      0.90182351	      0.91764728	      0.44200425	      3.24399152	     -1.95961151	    -13.38326194	     23.42337514	     23.42337514	     16.96417700	     -4.16582164	     -5.28490994	     27.68002079	     -2.73239418	      5.05272449	     27.87530581	     27.87530581	     10.36839662	    -11.07383034	      3.95676754	     -9.03621005	      3.18877328	      4.59449080	     41.44664746	    -12.44704389	     -2.51963741	     91.64092841	     44.95433775	      0.00000000	      0.00000000	     -6.78671448	     -8.29907202	      0.41518282	     38.82344989	     46.14386107	      0.00000000	      0.00000000
     35.49285714	     -7.15697299	     -3.77072122	      4.86259066	      0.90340373	      0.91863981	      0.43925396	      3.19100401	     -2.25551683	    -13.26197999	     24.17029607	     24.17029607	     16.29856994	     -4.00950865	     -6.33537124	     27.02470119	     -2.77490312	      4.78113290	     27.84173368	     27.84173368	     10.81478764	    -11.22169940	      4.18464748	     -8.88252076	      3.22325425	      4.55518193	     40.49684452	    -12.29371442	     -2.64360903	     88.41152173	     45.06259417	      0.00000000	      0.00000000	     -6.27524222	     -8.68887608	      0.39288434	     39.68464154	     46.15542351	      0.00000000	      0.00000000
